HIERARCHY
ROOT Hips
{
	OFFSET -0.001795 -0.223333 0.028219
	CHANNELS 6 Xposition Yposition Zposition Zrotation Yrotation Xrotation 
	JOINT LeftUpLeg
	{
		OFFSET 0.069520 -0.091406 -0.006815
		CHANNELS 3 Zrotation Yrotation Xrotation
		JOINT LeftLeg
		{
			OFFSET 0.034277 -0.375199 -0.004496
			CHANNELS 3 Zrotation Yrotation Xrotation
			JOINT LeftFoot
			{
				OFFSET -0.013596 -0.397961 -0.043693
				CHANNELS 3 Zrotation Yrotation Xrotation
				JOINT LeftToe
				{
					OFFSET 0.026358 -0.055791 0.119288
					CHANNELS 3 Zrotation Yrotation Xrotation
					End Site
					{
						OFFSET 0.000000 0.000000 0.000000
					}
				}
			}
		}
	}
	JOINT RightUpLeg
	{
		OFFSET -0.067670 -0.090522 -0.004320
		CHANNELS 3 Zrotation Yrotation Xrotation
		JOINT RightLeg
		{
			OFFSET -0.038290 -0.382569 -0.008850
			CHANNELS 3 Zrotation Yrotation Xrotation
			JOINT RightFoot
			{
				OFFSET 0.015774 -0.398415 -0.042312
				CHANNELS 3 Zrotation Yrotation Xrotation
				JOINT RightToe
				{
					OFFSET -0.025372 -0.048144 0.123348
					CHANNELS 3 Zrotation Yrotation Xrotation
					End Site
					{
						OFFSET 0.000000 0.000000 0.000000
					}
				}
			}
		}
	}
	JOINT Spine
	{
		OFFSET -0.002533 0.108963 -0.026696
		CHANNELS 3 Zrotation Yrotation Xrotation
		JOINT Spine1
		{
			OFFSET 0.005487 0.135180 0.001092
			CHANNELS 3 Zrotation Yrotation Xrotation
			JOINT Spine2
			{
				OFFSET 0.001457 0.052922 0.025425
				CHANNELS 3 Zrotation Yrotation Xrotation
				JOINT Neck
				{
					OFFSET -0.002778 0.213870 -0.042857
					CHANNELS 3 Zrotation Yrotation Xrotation
					JOINT Head
					{
						OFFSET 0.005152 0.064970 0.051349
						CHANNELS 3 Zrotation Yrotation Xrotation
						End Site
						{
							OFFSET 0.000000 0.000000 0.000000
						}
					}
				}
				JOINT LeftShoulder
				{
					OFFSET 0.078845 0.121749 -0.034090
					CHANNELS 3 Zrotation Yrotation Xrotation
					JOINT LeftArm
					{
						OFFSET 0.090977 0.030469 -0.008868
						CHANNELS 3 Zrotation Yrotation Xrotation
						JOINT LeftForeArm
						{
							OFFSET 0.259612 -0.012772 -0.027456
							CHANNELS 3 Zrotation Yrotation Xrotation
							JOINT LeftHand
							{
								OFFSET 0.249234 0.008986 -0.001171
								CHANNELS 3 Zrotation Yrotation Xrotation
								End Site
								{
									OFFSET 0.000000 0.000000 0.000000
								}
							}
						}
					}
				}
				JOINT RightShoulder
				{
					OFFSET -0.081759 0.118833 -0.038615
					CHANNELS 3 Zrotation Yrotation Xrotation
					JOINT RightArm
					{
						OFFSET -0.096012 0.032551 -0.009143
						CHANNELS 3 Zrotation Yrotation Xrotation
						JOINT RightForeArm
						{
							OFFSET -0.253742 -0.013329 -0.021401
							CHANNELS 3 Zrotation Yrotation Xrotation
							JOINT RightHand
							{
								OFFSET -0.255298 0.007772 -0.005559
								CHANNELS 3 Zrotation Yrotation Xrotation
								End Site
								{
									OFFSET 0.000000 0.000000 0.000000
								}
							}
						}
					}
				}
			}
		}
	}
}
MOTION
Frames: 6
Frame Time: 0.050000
0.000000 0.943843 0.000000 -0.606120 -0.718986 7.256441 6.561843 -0.392876 -6.066240 0.603147 -0.011146 -1.382020 1.405570 5.654711 7.876847 0.000000 0.000000 0.000000 -3.829023 0.626217 -6.897295 -2.455997 0.215882 -0.547999 -0.387322 -4.563753 8.345017 0.000000 0.000000 0.000000 4.683743 0.215411 -4.520786 -2.205271 1.044872 -5.442834 -3.364429 4.786927 5.348778 6.456814 -2.382518 -15.294087 0.000000 0.000000 0.000000 -15.136816 -1.834149 -1.510450 -56.673270 -6.306801 -3.784166 -7.417873 -14.568760 1.368226 0.000000 0.000000 0.000000 14.282464 -4.460383 -2.625064 64.359603 6.342709 -2.473020 5.813525 17.060682 1.456737 0.000000 0.000000 0.000000 
0.000525 0.942902 -0.000085 -0.727004 -1.249108 7.786520 6.747238 -0.373460 -5.586782 0.793455 0.019559 -2.594861 1.573497 5.900067 7.860207 0.000000 0.000000 0.000000 -3.868593 0.697007 -7.826796 -2.883360 0.308450 0.285640 0.414265 -3.050631 8.590283 0.000000 0.000000 0.000000 5.523931 0.235963 -4.755235 -2.856811 1.300573 -6.058296 -3.948365 5.497129 5.067320 6.657969 -2.289915 -16.273680 0.000000 0.000000 0.000000 -15.851226 -1.508194 -1.889451 -55.512753 -6.138398 -3.705221 -8.336968 -14.596012 1.469283 0.000000 0.000000 0.000000 14.748188 -5.581953 -3.153753 64.838329 5.967616 -2.622115 6.335922 16.602290 1.489927 0.000000 0.000000 0.000000 
0.000805 0.943176 -0.000268 -0.463870 -0.704693 7.459004 6.567364 -0.392632 -5.994317 0.877821 -0.047725 -1.132853 1.201144 5.028611 7.024609 0.000000 0.000000 0.000000 -4.177934 0.688793 -7.950939 -2.770215 0.333539 0.809577 -0.331541 -4.583796 8.722285 0.000000 0.000000 0.000000 5.034185 0.197913 -4.322091 -2.237129 1.060484 -7.510060 -4.295984 5.243730 5.829535 6.786307 -2.491955 -15.568555 0.000000 0.000000 0.000000 -15.608864 -1.760904 -1.726362 -55.508008 -5.693676 -4.001334 -8.065620 -14.236287 1.404160 0.000000 0.000000 0.000000 15.580363 -4.514390 -2.626921 63.509967 5.800853 -2.851278 6.420253 16.295093 1.471464 0.000000 0.000000 0.000000 
0.001037 0.943211 -0.000326 -0.431254 -0.356487 7.843758 6.871038 -0.406584 -6.272832 0.370258 0.012776 -1.414115 1.094937 4.959417 7.338468 0.000000 0.000000 0.000000 -4.345816 0.733490 -8.712137 -2.728429 0.346427 1.066312 -0.426560 -4.809168 8.925753 0.000000 0.000000 0.000000 4.924669 0.192118 -4.362039 -2.448901 1.148097 -7.157590 -3.931013 4.392811 4.505707 6.574257 -2.520087 -14.819517 0.000000 0.000000 0.000000 -15.542884 -0.866080 -2.045740 -56.110352 -5.849945 -3.854430 -7.546570 -14.238088 1.347751 0.000000 0.000000 0.000000 14.227015 -4.687242 -2.767160 64.163495 5.189631 -3.009668 7.580187 16.448750 1.609430 0.000000 0.000000 0.000000 
0.001160 0.943977 -0.000447 -0.304291 0.224461 7.718986 6.703898 -0.425139 -6.516887 0.458657 -0.006222 -1.118306 0.928458 4.746800 7.455747 0.000000 0.000000 0.000000 -4.490147 0.713626 -8.589235 -2.785521 0.350847 0.994320 -0.934293 -5.824152 9.054415 0.000000 0.000000 0.000000 4.626282 0.189103 -4.348271 -1.896241 0.939155 -7.007385 -4.154554 3.982280 4.241244 6.355515 -2.359504 -14.943387 0.000000 0.000000 0.000000 -15.455615 -0.720954 -2.105442 -56.262473 -6.306734 -3.631271 -7.848403 -14.146025 1.373758 0.000000 0.000000 0.000000 13.849763 -4.702525 -2.751444 64.087387 4.880595 -3.136378 8.153322 16.872309 1.732869 0.000000 0.000000 0.000000 
0.001293 0.944523 -0.000490 -0.261341 0.474538 7.888316 6.867966 -0.433733 -6.704721 0.375868 0.002821 -1.140482 1.105435 5.127245 7.588923 0.000000 0.000000 0.000000 -4.510867 0.721895 -8.754242 -3.069288 0.359560 0.633644 -1.032822 -6.211190 9.759347 0.000000 0.000000 0.000000 4.423019 0.179012 -4.277386 -1.777391 0.898598 -7.302538 -4.075156 3.760278 4.008138 6.580719 -2.508627 -14.904256 0.000000 0.000000 0.000000 -15.618342 -0.493308 -2.229339 -56.115177 -6.186122 -3.646496 -7.949506 -14.492399 1.420457 0.000000 0.000000 0.000000 13.541335 -4.706269 -2.748960 64.137313 4.564676 -3.271555 8.597032 16.912037 1.790869 0.000000 0.000000 0.000000 
